<?xml version="1.0" encoding="utf-8"?>
<!-- Generator: Adobe Illustrator 18.0.0, SVG Export Plug-In . SVG Version: 6.00 Build 0)  -->
<!DOCTYPE svg PUBLIC "-//W3C//DTD SVG 1.1//EN" "http://www.w3.org/Graphics/SVG/1.1/DTD/svg11.dtd">
<svg version="1.1" id="Layer_1" xmlns="http://www.w3.org/2000/svg" xmlns:xlink="http://www.w3.org/1999/xlink" x="0px" y="0px"
	 width="800px" height="800px" viewBox="0 0 800 800" enable-background="new 0 0 800 800" xml:space="preserve">
<g>
	
		<rect x="294.4" y="209.9" transform="matrix(0.8307 0.5568 -0.5568 0.8307 297.2448 -137.3019)" fill="#FAFAFA" width="159.8" height="420.2"/>
	
		<rect x="347.5" y="245.8" transform="matrix(0.8307 0.5568 -0.5568 0.8307 275.8661 -163.4665)" fill="#FFE051" width="118.4" height="252"/>
	
		<rect x="150.7" y="592.2" transform="matrix(0.8307 0.5568 -0.5568 0.8307 379.8194 -36.2425)" fill="#D1D4BE" width="197.5" height="28.3"/>
	
		<rect x="180.7" y="610.9" transform="matrix(0.8307 0.5568 -0.5568 0.8307 400.6754 -10.7177)" fill="#F4F4DE" width="74.6" height="85"/>
	
		<rect x="258.7" y="538.2" transform="matrix(0.8307 0.5568 -0.5568 0.8307 363.2821 -56.4818)" fill="#2B2B3E" width="31.6" height="61.5"/>
	
		<rect x="241.1" y="520.5" transform="matrix(0.8307 0.5568 -0.5568 0.8307 347.3464 -75.9849)" fill="#313048" width="114.9" height="25"/>
	<path fill="#FAFAFA" d="M532.9,234.1l-46.8-31.4l6.9-10.2c4.3-6.4,13-8.1,19.4-3.8l23.5,15.8c6.4,4.3,8.1,13,3.8,19.4L532.9,234.1z
		"/>
	<polygon fill="#DDDEC8" points="532.3,201.4 516.6,190.8 612,48.5 610.5,84.8 	"/>
	<polygon fill="#FAFAFA" points="542.9,280.1 439.7,210.9 486,202.7 532.9,234.1 	"/>
	
		<rect x="269.4" y="499.7" transform="matrix(0.8307 0.5568 -0.5568 0.8307 338.1295 -87.265)" fill="#1C1C29" width="86.2" height="25"/>
	
		<rect x="268.8" y="473.9" transform="matrix(0.8307 0.5568 -0.5568 0.8307 327.8942 -99.7914)" fill="#313048" width="118.4" height="30.6"/>
	<path fill="#DBDEC8" d="M242.9,743.4l-117.6-78.9h0c5.7-8.4,17.1-10.7,25.5-5l87.1,58.4C246.3,723.5,248.5,734.9,242.9,743.4
		L242.9,743.4z"/>
	<path fill="#CCCFB9" d="M217.3,748.4l-87.1-58.4c-8.4-5.7-10.7-17.1-5-25.5h0l117.6,78.9l0,0C237.2,751.8,225.8,754.1,217.3,748.4z
		"/>
	<g>
		<path fill="#FAFAFA" d="M332,457.1l-54.3-36.4l7.3-10.8l54.3,36.4c3,2,3.8,6.1,1.8,9.1l0,0C339,458.3,335,459.1,332,457.1z"/>
		<path fill="#FAFAFA" d="M337.1,423.2L295,395l7.3-10.8l42.1,28.2c3,2,3.8,6.1,1.8,9.1v0C344.1,424.4,340.1,425.2,337.1,423.2z"/>
		<path fill="#FAFAFA" d="M366.5,405.6l-54.3-36.4l7.3-10.8l54.3,36.4c3,2,3.8,6.1,1.8,9.1l0,0C373.6,406.8,369.5,407.6,366.5,405.6
			z"/>
		<path fill="#FAFAFA" d="M371.6,371.7l-42.1-28.2l7.3-10.8l42.1,28.2c3,2,3.8,6.1,1.8,9.1l0,0C378.6,372.9,374.6,373.7,371.6,371.7
			z"/>
		<path fill="#FAFAFA" d="M401.1,354.1l-54.3-36.4l7.3-10.8l54.3,36.4c3,2,3.8,6.1,1.8,9.1l0,0C408.1,355.3,404.1,356.1,401.1,354.1
			z"/>
		<path fill="#FAFAFA" d="M406.1,320.1L364,291.9l7.3-10.8l42.1,28.2c3,2,3.8,6.1,1.8,9.1l0,0C413.2,321.3,409.1,322.1,406.1,320.1z
			"/>
		<path fill="#FAFAFA" d="M435.6,302.5l-54.3-36.4l7.3-10.8l54.3,36.4c3,2,3.8,6.1,1.8,9.1v0C442.7,303.7,438.6,304.6,435.6,302.5z"
			/>
		<path fill="#FAFAFA" d="M440.7,268.6l-42.1-28.2l7.3-10.8l42.1,28.2c3,2,3.8,6.1,1.8,9.1l0,0C447.7,269.8,443.7,270.6,440.7,268.6
			z"/>
	</g>
	
		<rect x="401.7" y="262.3" transform="matrix(-0.8307 -0.5568 0.5568 -0.8307 573.3155 950.9138)" fill="#FFCD00" width="59.2" height="252"/>
	<path fill="#FBC900" d="M424.1,320.4c-6.4-4.3-15-2.6-19.3,3.8c-4.3,6.4-2.6,15,3.8,19.3c6.4,4.3,15,2.6,19.3-3.8
		C432.2,333.3,430.5,324.6,424.1,320.4z M412.5,337.7c-3.2-2.1-4-6.4-1.9-9.6s6.4-4,9.6-1.9c3.2,2.1,4,6.4,1.9,9.6
		C420,339,415.7,339.8,412.5,337.7z"/>
	<path fill="#EDA200" d="M489.6,301.4c-9.5-6.4-22.3-3.8-28.7,5.7s-3.8,22.3,5.7,28.7c9.5,6.4,22.3,3.8,28.7-5.7
		S499.1,307.8,489.6,301.4z M471.7,328.1c-5.3-3.5-6.7-10.7-3.1-15.9c3.5-5.3,10.7-6.7,15.9-3.1s6.7,10.7,3.1,15.9
		C484.1,330.2,477,331.6,471.7,328.1z"/>
	<circle fill="#EDA200" cx="434.9" cy="387.2" r="11.6"/>
	<circle fill="#FBC900" cx="350" cy="438.4" r="8.4"/>
	<path fill="#FFCD00" d="M677.9,189.5c-1.1,23.3-20.9,41.4-44.3,40.3s-41.4-20.9-40.3-44.3s26.1-60.1,45.7-70
		C658.1,127.9,679,166.2,677.9,189.5z"/>
	<path fill="#FFE051" d="M646.8,220c-23.3-1.1-41.4-20.9-40.3-44.3c0.9-18.2,16.3-44.7,32.4-60.1c-19.6,9.9-44.5,46.6-45.6,69.9
		c-1.1,23.3,16.9,43.2,40.3,44.3c13.2,0.6,25.2-4.8,33.4-13.9C660.9,218.8,654,220.3,646.8,220z"/>
	<path fill="#17171E" d="M340.6,537.4c1.6,1.1,3.2,2.1,4.9,3.1l9.8-14.7L288,480.7C300.5,502.8,318.1,522.3,340.6,537.4z"/>
	<path fill="#1F1F28" d="M295.7,565.8l9.1-13.6l-24-16.1C283.9,546.8,288.9,556.9,295.7,565.8z"/>
	
		<rect x="214.8" y="621.3" transform="matrix(-0.8307 -0.5568 0.5568 -0.8307 57.8151 1345.0796)" fill="#DBDEC8" width="37.3" height="85"/>
	
		<rect x="293.7" y="536.5" transform="matrix(-0.8307 -0.5568 0.5568 -0.8307 284.6216 1184.6646)" fill="#20202E" width="57.5" height="25"/>
	
		<rect x="323" y="490.4" transform="matrix(-0.8307 -0.5568 0.5568 -0.8307 363.947 1121.9862)" fill="#20202E" width="59.2" height="30.6"/>
	<polygon fill="#EBEBEB" points="491.3,245.5 542.9,280.1 532.9,234.1 509.5,218.4 	"/>
	<path fill="#BBBEAB" d="M210.5,597.6c9.1,25.1,24.2,48.3,44.8,67.1l17.3-25.8l-62-41.5L210.5,597.6z"/>
	<path fill="#D1D1BE" d="M241.6,618.1l-31-20.8l-0.2,0.3c4.8,13.3,11.3,26.1,19.5,37.9L241.6,618.1z"/>
</g>
</svg>
